<svg xmlns="http://www.w3.org/2000/svg" fill="none" viewBox="0 0 64 52">
    <path fill="#F6FEF1" fill-rule="evenodd" d="M58.1091 7.9434h-6.3682a2.1263 2.1263 0 0 1-1.5137-.627l-5.591-5.591C43.5236.613 42.0443 0 40.4708 0H23.5417c-1.5735 0-3.053.6129-4.1651 1.7254l-5.5912 5.591a2.1266 2.1266 0 0 1-1.5137.627H5.902c-3.247 0-5.8897 2.6417-5.891 5.8889L0 45.9589c-.001 3.2545 2.6314 5.8929 5.8908 5.8929h52.2183c3.2482 0 5.8908-2.6426 5.8908-5.8907V13.8343c0-3.2533-2.6318-5.891-5.8908-5.891Zm2.1408 38.0175c0 1.1804-.9605 2.1408-2.1408 2.1408H5.8908c-1.1826 0-2.1414-.9573-2.1409-2.1416l.0112-32.1266c.0005-1.1801.9608-2.1402 2.1409-2.1402h6.3697c1.5735 0 3.0529-.6127 4.1655-1.7254l5.591-5.591a2.1263 2.1263 0 0 1 1.5135-.627h16.9291a2.126 2.126 0 0 1 1.5138.6272l5.5908 5.5907c1.1124 1.1126 2.5918 1.7255 4.1655 1.7255h6.3682c1.1825 0 2.1408.9568 2.1408 2.1408v32.1268ZM32.0063 13.9673c-7.6769 0-13.9225 6.2456-13.9225 13.9225s6.2456 13.9225 13.9225 13.9225c7.6768 0 13.9224-6.2456 13.9224-13.9225s-6.2456-13.9225-13.9224-13.9225Zm0 24.095c-5.6092 0-10.1725-4.5634-10.1725-10.1725 0-5.6092 4.5633-10.1725 10.1725-10.1725 5.6091 0 10.1724 4.5633 10.1724 10.1725 0 5.6091-4.5633 10.1725-10.1724 10.1725ZM9.9192 3.7503H5.9033c-1.0356 0-1.875-.8396-1.875-1.875 0-1.0355.8395-1.875 1.875-1.875h4.0159c1.0355 0 1.875.8395 1.875 1.875 0 1.0354-.8395 1.875-1.875 1.875Z" clip-rule="evenodd"/>
</svg>