<svg xmlns="http://www.w3.org/2000/svg" fill="none" viewBox="0 0 87 64">
    <path fill="#F6FEF1" d="m84.4 51.8411-14.3603-9.6768c-.5833-.3928-1.3745-.2385-1.7675.3443-.3928.5833-.2387 1.3744.3443 1.7675l14.3605 9.6767a3.1629 3.1629 0 0 1 1.3973 2.6268v4.3678c0 .349-.2972.5061-.5084.5061-.0968 0-.1871-.029-.2757-.0888l-36.9367-24.89a5.7126 5.7126 0 0 0-6.386 0l-12.3938 8.3516c-.5832.393-.7373 1.1843-.3445 1.7674.393.5833 1.1846.7377 1.7674.3445l12.3939-8.3516a3.1665 3.1665 0 0 1 3.54 0l27.3677 18.4417H14.3228l10.0463-6.7696c.5832-.393.7373-1.1843.3445-1.7675-.393-.5833-1.1841-.7373-1.7674-.3444L3.3307 61.3645c-.0886.0598-.179.0888-.2757.0888-.2112 0-.5085-.157-.5085-.5061v-4.3677a3.1633 3.1633 0 0 1 1.3974-2.6269l33.5067-22.5784c.7057-.4755.5617-1.0733.5617-2.777 0-3.0041 2.444-5.4481 5.4482-5.4481s5.4482 2.444 5.4482 5.4481c0 1.7014-.1441 2.3013.5618 2.777l14.2189 9.5814c.5836.393 1.3747.2388 1.7674-.3445.3928-.5831.2387-1.3744-.3443-1.7674l-13.6571-9.2028V28.597c0-3.975-2.9163-7.2803-6.7214-7.892V17.61c0-1.1514.9367-2.0882 2.0881-2.0882 4.3982 0 7.9232-3.642 7.7551-8.0619-.1529-4.027-3.4272-7.3012-7.4539-7.454-4.4162-.1701-8.062 3.355-8.062 7.7552 0 .7031.5701 1.2732 1.2733 1.2732s1.2733-.57 1.2733-1.2732c0-2.9535 2.4421-5.3214 5.4188-5.2105 2.7044.1027 4.9032 2.3015 5.0061 5.0059.1135 2.9961-2.2795 5.4188-5.2105 5.4188-2.5555 0-4.6347 2.0792-4.6347 4.6347v3.095c-3.805.6117-6.7214 3.9172-6.7214 7.892v1.0439L2.5209 51.8411A5.706 5.706 0 0 0 0 56.5796v4.3678C0 62.6306 1.3704 64 3.055 64c1.2166 0 1.2529-.2232 7.4888-4.4252h65.8335l5.7902 3.9018c.5083.3424 1.0957.5234 1.6986.5234 1.6846 0 3.0549-1.3694 3.0549-3.0526v-4.3678a5.706 5.706 0 0 0-2.521-4.7385Z"/>
</svg>