<svg xmlns="http://www.w3.org/2000/svg" fill="none" viewBox="0 0 70 64">
    <path fill="#F6FEF1" fill-rule="evenodd" d="M5.8182 0h58.1816c3.2088 0 5.8183 2.6094 5.8183 5.8182v52.3636C69.8181 61.3906 67.2086 64 64 64H5.8182C2.6094 64 0 61.3906 0 58.1818V5.8182C0 2.6094 2.6094 0 5.8182 0ZM64 61.0908c1.6043 0 2.909-1.3047 2.909-2.909V5.8182c0-1.6043-1.3047-2.909-2.909-2.909H5.8182c-1.6043 0-2.909 1.3047-2.909 2.909v52.3636c0 1.6043 1.3047 2.909 2.909 2.909H64ZM8.7272 5.8182h1.4546c.8029 0 1.4546.6516 1.4546 1.4545 0 .803-.6517 1.4546-1.4546 1.4546H8.7272c-.8029 0-1.4546-.6516-1.4546-1.4545s.6517-1.4546 1.4546-1.4546Zm7.2727 0h1.4546c.8029 0 1.4546.6517 1.4546 1.4546 0 .803-.6517 1.4546-1.4546 1.4546h-1.4546c-.8029 0-1.4546-.6517-1.4546-1.4546s.6517-1.4546 1.4546-1.4546Zm45.091 0h-1.4546c-.803 0-1.4547.6517-1.4547 1.4546 0 .803.6517 1.4546 1.4547 1.4546h1.4546c.8029 0 1.4546-.6517 1.4546-1.4546s-.6517-1.4546-1.4546-1.4546ZM7.2726 11.6365h55.2728c.8029 0 1.4545.6515 1.4545 1.4543 0 .8029-.6517 1.4545-1.4546 1.4545H7.2726c-.8029 0-1.4545-.6515-1.4545-1.4544 0-.8028.6516-1.4544 1.4545-1.4544ZM16 20.3638c-3.2087 0-5.8182 2.6094-5.8182 5.8182v2.909c0 3.2088 2.6095 5.8182 5.8182 5.8182 3.2088 0 5.8182-2.6094 5.8182-5.8182v-2.909c0-3.2088-2.6094-5.8182-5.8182-5.8182Zm2.9092 8.7272c0 1.6043-1.3047 2.9091-2.9091 2.9091s-2.9091-1.3048-2.9091-2.9091v-2.909c0-1.6045 1.3047-2.9092 2.909-2.9092 1.6043 0 2.9091 1.3047 2.9091 2.909l.0001 2.9092Zm23.2726-8.7272c-3.2088 0-5.8182 2.6094-5.8182 5.8182v2.909c0 3.2088 2.6094 5.8182 5.8182 5.8182 3.2087 0 5.8182-2.6094 5.8182-5.8182v-2.909c0-3.2088-2.6095-5.8182-5.8182-5.8182Zm2.9092 8.7272c0 1.6043-1.3048 2.9091-2.9091 2.9091-1.6045 0-2.9092-1.3048-2.9092-2.9091v-2.909c0-1.6044 1.3047-2.9091 2.9091-2.9091 1.6043 0 2.909 1.3047 2.909 2.9091l.0002 2.909Zm-8.7274 17.4545c0-3.2088 2.6094-5.8183 5.8182-5.8183 3.2087 0 5.8182 2.6095 5.8182 5.8183v2.909c0 3.2088-2.6095 5.8182-5.8182 5.8182-3.2088 0-5.8182-2.6094-5.8182-5.8182v-2.909Zm5.8183 5.818c1.6043 0 2.9091-1.3047 2.9091-2.909l-.0002-2.909c0-1.6043-1.3047-2.9091-2.909-2.9091-1.6044 0-2.9091 1.3048-2.9091 2.9091v2.909c0 1.6043 1.3047 2.909 2.9092 2.909ZM29.0909 20.3639h-2.9091c-.8029 0-1.4546.6517-1.4546 1.4546 0 .8028.6517 1.4544 1.4546 1.4544h1.4546v8.7272h-1.4546c-.8029 0-1.4546.6518-1.4546 1.4547 0 .8029.6517 1.4546 1.4546 1.4546H32c.8029 0 1.4546-.6517 1.4546-1.4546S32.8029 32.0001 32 32.0001h-1.4545V21.8185c0-.8031-.6517-1.4546-1.4546-1.4546Zm-16 20.3634h2.909c.8029 0 1.4546.6517 1.4546 1.4546v10.1816h1.4546c.8029 0 1.4545.6517 1.4546 1.4546 0 .8029-.6517 1.4546-1.4546 1.4546H13.0909c-.8029 0-1.4546-.6517-1.4546-1.4546s.6517-1.4546 1.4546-1.4546h1.4546v-8.7271h-1.4546c-.8029 0-1.4546-.6516-1.4546-1.4545s.6517-1.4546 1.4546-1.4546Zm16 0h-2.9091c-.8029 0-1.4546.6517-1.4546 1.4546s.6517 1.4546 1.4546 1.4546h1.4546v8.727h-1.4546c-.8029 0-1.4546.6517-1.4546 1.4546s.6517 1.4546 1.4546 1.4546H32c.8029 0 1.4546-.6517 1.4546-1.4546-.0001-.8029-.6517-1.4546-1.4546-1.4546h-1.4545V42.1819c0-.8029-.6517-1.4546-1.4546-1.4546Zm23.2726 0h2.9091c.8029 0 1.4546.6517 1.4548 1.4546v10.1816h1.4544c.8029 0 1.4545.6517 1.4546 1.4546 0 .8029-.6517 1.4546-1.4546 1.4546h-5.8183c-.8029 0-1.4546-.6517-1.4546-1.4546s.6517-1.4546 1.4546-1.4546h1.4546v-8.727h-1.4546c-.8029 0-1.4546-.6517-1.4546-1.4546s.6517-1.4546 1.4546-1.4546Zm2.9091-20.3634h-2.9091c-.8029 0-1.4546.6517-1.4546 1.4546 0 .8028.6517 1.4544 1.4546 1.4544h1.4546v8.7272h-1.4546c-.8029 0-1.4546.6518-1.4546 1.4547 0 .8029.6517 1.4546 1.4546 1.4546h5.8183c.8029 0 1.4546-.6517 1.4546-1.4546s-.6517-1.4547-1.4546-1.4547h-1.4544V21.8185c-.0002-.8031-.6519-1.4546-1.4548-1.4546Z" clip-rule="evenodd"/>
</svg>