<svg xmlns="http://www.w3.org/2000/svg" fill="none" viewBox="0 0 60 64">
    <path fill="#F6FEF1" d="M58.9963 10.6912c-.2855-1.7933-1.8557-3.1316-3.6669-3.1316h-.0357c-11.2595.116-22.1176 4.1309-30.7451 11.322a23.6499 23.6499 0 0 0-2.6587-9.0558C19.8556 5.9804 16.7954 2.7685 13.0571.538c-1.5078-.901-3.3903-.6513-4.568.6067C2.886 7.1135-.1296 14.9113.0043 23.1017c.1249 7.887 3.1583 15.3101 8.565 21.0112a47.2245 47.2245 0 0 0-1.1509 5.9421c-.107.8297.4729 1.5881 1.3116 1.7041.0624.0089.1338.0089.1962.0089.7495 0 1.4008-.5532 1.4989-1.3205.2766-2.0966.687-4.1487 1.2402-6.1383.0624-.1338.0981-.2676.116-.4104 5.4691-19.1733 23.1525-33.0916 43.5659-33.3057h.009c.3211 0 .6245.2587.678.571a70.4386 70.4386 0 0 1 .1071 21.386c-.0179.0535-.0357.107-.0446.1606C54 41.7129 48.1472 49.4037 40.0193 53.8022c-7.1643 3.89-15.5064 4.9071-23.3309 2.9353a74.5263 74.5263 0 0 0 7.5925-5.7279c6.3793-5.487 11.7414-11.9733 15.9347-19.2625.4193-.7227.1695-1.6506-.5621-2.0699-.7227-.4193-1.6506-.1695-2.0699.5621-6.1205 10.5725-14.8729 19.4053-25.2759 25.6328-.0446.0178-.0803.0446-.1249.0714-3.3369 1.9896-6.8343 3.7026-10.4744 5.1301-.7762.3033-1.1688 1.1866-.8565 1.9628.232.5978.803.9636 1.4096.9636.1874 0 .3748-.0357.5532-.1071a74.272 74.272 0 0 0 10.3852-5.023c3.6937 1.249 7.5301 1.8736 11.3576 1.8736 5.835 0 11.6432-1.4365 16.8715-4.2826 8.797-4.7643 15.1673-13.0617 17.5138-22.7778.0535-.1249.0981-.2587.116-.4014 1.1509-7.4945 1.1241-15.096-.0625-22.5905Zm-43.7622 18.522c-.0179-1.6238-.0892-3.1316-.2142-4.5769-.2765-3.087-.8029-6.3346-1.6059-9.948-.1785-.8208-.9904-1.3294-1.8112-1.151-.8208.1785-1.3293.9904-1.1509 1.8112.7762 3.4796 1.2848 6.6023 1.5435 9.5554.2498 2.8283.2766 5.9421.0714 9.7696-.9636 1.945-1.8023 3.9524-2.4982 6.0223C.4326 29.7932.7448 13.7961 10.684 3.2146c.1962-.2141.5353-.2409.8119-.0803 6.5041 3.8722 10.3316 10.8848 10.0907 18.415a48.5528 48.5528 0 0 0-6.3524 7.6639Z"/>
</svg>