<svg xmlns="http://www.w3.org/2000/svg" fill="none" viewBox="0 0 20 20">
    <path fill="#B9DB71" fill-rule="evenodd" d="M17.3743 6.8685c1.1469-1.1501 1.1459-3.091-.0029-4.2398-1.1441-1.1442-3.0741-1.1498-4.2259-.0167a.7993.7993 0 0 1-.0165.017l-2.3418 2.3422a.7515.7515 0 0 1-1.061 0 .7503.7503 0 0 1 0-1.0609l2.342-2.3422a1.1173 1.1173 0 0 1 .0069-.0069c1.7259-1.718 4.6345-1.7157 6.3572.007 1.725 1.725 1.725 4.639 0 6.364a.7313.7313 0 0 1-.0201.0194l-4.1493 4.1493c-.0065.0071-.0133.014-.0201.0209-.8775.8771-2.0299 1.3159-3.1819 1.3159-1.1524 0-2.3047-.4388-3.1819-1.3159a.7498.7498 0 0 1 0-1.0605.7498.7498 0 0 1 1.0605 0c1.1636 1.1635 3.053 1.17 4.2244.0182a.7897.7897 0 0 1 .018-.0186l4.1895-4.1895.0029-.0029Zm-6.3134 2.071a.7466.7466 0 0 0 .5303.2197.7468.7468 0 0 0 .5302-.2197.7498.7498 0 0 0 0-1.0606c-1.7542-1.7546-4.6091-1.755-6.3637 0l-.0083.0085-4.166 4.1656-.0152.0148c-1.725 1.725-1.725 4.6391 0 6.3641.862.8625 2.022 1.2938 3.1818 1.2938 1.1524 0 2.3048-.4257 3.1651-1.2774a.7846.7846 0 0 0 .0168-.0164l2.3419-2.3418a.7498.7498 0 0 0 0-1.0605.7498.7498 0 0 0-1.0605 0l-2.3268 2.3267-.015.0147c-1.1498 1.1498-3.093 1.1498-4.2428 0-1.1456-1.1455-1.1498-3.0787-.0127-4.23l.0127-.0123 4.1895-4.1891.0074-.0076c1.1707-1.1625 3.0682-1.1597 4.2353.0075Z" clip-rule="evenodd"/>
</svg>