<?xml version="1.0" encoding="UTF-8"?>
<svg width="188px"  height="26px" viewBox="0 0 188 26" version="1.1" xmlns="http://www.w3.org/2000/svg" xmlns:xlink="http://www.w3.org/1999/xlink">
    <title>Logo</title>
    <g id="Page-1" color="#ffffff" stroke="none" stroke-width="1" fill="none" fill-rule="evenodd">
        <path color="#ffffff" d="M85.166,6.98 C86.9113,6.98 88.43,7.39933 89.722,8.238 C91.0367,9.07667 92.068,10.1873 92.816,11.57 C93.564,12.93 93.938,14.426 93.938,16.058 L93.938,16.602 C93.938,16.7607 93.9267,16.8853 93.904,16.976 L78.74,16.976 C78.8533,18.2453 79.2047,19.3787 79.794,20.376 C80.406,21.3507 81.188,22.1327 82.14,22.722 C83.1147,23.2887 84.1687,23.572 85.302,23.572 C86.458,23.572 87.546,23.2773 88.566,22.688 C89.6087,22.0987 90.334,21.328 90.742,20.376 L92.748,20.92 C92.3853,21.7587 91.83,22.518 91.082,23.198 C90.334,23.878 89.45,24.4107 88.43,24.796 C87.4327,25.1587 86.356,25.34 85.2,25.34 C83.9307,25.34 82.752,25.102 81.664,24.626 C80.576,24.1273 79.6353,23.4587 78.842,22.62 C78.0487,21.7587 77.4253,20.7727 76.972,19.662 C76.5413,18.5513 76.326,17.3613 76.326,16.092 C76.326,14.4373 76.7,12.9187 77.448,11.536 C78.2187,10.1533 79.2727,9.054 80.61,8.238 C81.9473,7.39933 83.466,6.98 85.166,6.98 Z M103.693,6.98 C105.053,6.98 106.254,7.19533 107.297,7.626 C108.34,8.05667 109.19,8.65733 109.847,9.428 L108.725,10.992 C108.09,10.2667 107.331,9.734 106.447,9.394 C105.586,9.03133 104.622,8.85 103.557,8.85 C102.832,8.85 102.14,8.952 101.483,9.156 C100.826,9.33733 100.282,9.65467 99.8511,10.108 C99.4431,10.5387 99.2391,11.1393 99.2391,11.91 C99.2391,12.5447 99.3977,13.0433 99.7151,13.406 C100.032,13.746 100.508,14.0407 101.143,14.29 C101.778,14.5167 102.56,14.766 103.489,15.038 C104.826,15.4007 105.994,15.7747 106.991,16.16 C107.988,16.5227 108.759,16.9987 109.303,17.588 C109.847,18.1773 110.119,19.0047 110.119,20.07 C110.119,21.7247 109.496,23.0167 108.249,23.946 C107.002,24.8753 105.359,25.34 103.319,25.34 C101.868,25.34 100.52,25.102 99.2731,24.626 C98.0264,24.15 96.9497,23.4247 96.0431,22.45 L96.9951,20.818 C97.9924,21.7473 98.9897,22.4273 99.9871,22.858 C101.007,23.266 102.084,23.47 103.217,23.47 C104.6,23.47 105.722,23.198 106.583,22.654 C107.444,22.0873 107.875,21.2827 107.875,20.24 C107.875,19.5373 107.66,19.0047 107.229,18.642 C106.821,18.2567 106.22,17.9507 105.427,17.724 C104.656,17.4747 103.727,17.214 102.639,16.942 C101.415,16.602 100.384,16.2507 99.5451,15.888 C98.7291,15.5027 98.1057,15.0267 97.6751,14.46 C97.2671,13.8707 97.0631,13.1113 97.0631,12.182 C97.0631,11.026 97.3464,10.074 97.9131,9.326 C98.5024,8.55533 99.2957,7.97733 100.293,7.592 C101.313,7.184 102.446,6.98 103.693,6.98 Z M121.591,6.98 C123.245,6.98 124.707,7.36533 125.977,8.136 C127.246,8.884 128.187,9.904 128.799,11.196 L126.555,11.91 C126.056,11.0033 125.353,10.3007 124.447,9.802 C123.563,9.28067 122.577,9.02 121.489,9.02 C120.31,9.02 119.233,9.326 118.259,9.938 C117.284,10.55 116.502,11.3887 115.913,12.454 C115.346,13.5193 115.063,14.732 115.063,16.092 C115.063,17.4293 115.357,18.642 115.947,19.73 C116.536,20.818 117.318,21.6907 118.293,22.348 C119.267,22.9827 120.344,23.3 121.523,23.3 C122.293,23.3 123.03,23.164 123.733,22.892 C124.458,22.62 125.081,22.2573 125.603,21.804 C126.147,21.328 126.509,20.818 126.691,20.274 L128.969,20.954 C128.651,21.7927 128.119,22.552 127.371,23.232 C126.645,23.8893 125.784,24.4107 124.787,24.796 C123.812,25.1587 122.758,25.34 121.625,25.34 C120.333,25.34 119.143,25.102 118.055,24.626 C116.989,24.1273 116.049,23.4473 115.233,22.586 C114.439,21.7247 113.816,20.7387 113.363,19.628 C112.932,18.5173 112.717,17.3387 112.717,16.092 C112.717,14.4147 113.091,12.8847 113.839,11.502 C114.587,10.1193 115.629,9.02 116.967,8.204 C118.304,7.388 119.845,6.98 121.591,6.98 Z M160.039,6.98 C161.784,6.98 163.303,7.39933 164.595,8.238 C165.91,9.07667 166.941,10.1873 167.689,11.57 C168.437,12.93 168.811,14.426 168.811,16.058 L168.811,16.602 C168.811,16.7607 168.8,16.8853 168.777,16.976 L153.613,16.976 C153.726,18.2453 154.078,19.3787 154.667,20.376 C155.279,21.3507 156.061,22.1327 157.013,22.722 C157.988,23.2887 159.042,23.572 160.175,23.572 C161.331,23.572 162.419,23.2773 163.439,22.688 C164.482,22.0987 165.207,21.328 165.615,20.376 L167.621,20.92 C167.258,21.7587 166.703,22.518 165.955,23.198 C165.207,23.878 164.323,24.4107 163.303,24.796 C162.306,25.1587 161.229,25.34 160.073,25.34 C158.804,25.34 157.625,25.102 156.537,24.626 C155.449,24.1273 154.508,23.4587 153.715,22.62 C152.922,21.7587 152.298,20.7727 151.845,19.662 C151.414,18.5513 151.199,17.3613 151.199,16.092 C151.199,14.4373 151.573,12.9187 152.321,11.536 C153.092,10.1533 154.146,9.054 155.483,8.238 C156.82,7.39933 158.339,6.98 160.039,6.98 Z M11.36,0.859999 C12.4706,0.859999 13.4906,1.08667 14.42,1.54 C15.372,1.99333 16.188,2.60533 16.868,3.376 C17.5706,4.14666 18.1033,5.008 18.466,5.96 C18.8513,6.912 19.044,7.88667 19.044,8.884 C19.044,9.904 18.8626,10.89 18.5,11.842 C18.16,12.7713 17.6613,13.5873 17.004,14.29 C16.3466,14.9927 15.576,15.5367 14.692,15.922 L20.2,25 L15.032,25 L10.068,16.908 L5.37597,16.908 L5.37597,25 L0.683969,25 L0.683969,0.859999 L11.36,0.859999 Z M34.2521,0.859999 L43.1261,25 L38.2981,25 L36.0541,18.982 L27.6221,18.982 L25.4121,25 L20.5841,25 L29.4921,0.859999 L34.2521,0.859999 Z M54.5458,0.859999 C57.1751,0.859999 59.3738,1.404 61.1418,2.492 C62.9098,3.55733 64.2358,5.008 65.1198,6.844 C66.0038,8.65733 66.4458,10.6747 66.4458,12.896 C66.4458,15.344 65.9585,17.4747 64.9838,19.288 C64.0091,21.1013 62.6265,22.5067 60.8358,23.504 C59.0678,24.5013 56.9711,25 54.5458,25 L45.7738,25 L45.7738,0.859999 L54.5458,0.859999 Z M72.4577,7.286 L72.4577,25 L70.1457,25 L70.1457,7.286 L72.4577,7.286 Z M134.913,0.179999 L134.913,11.298 C135.615,9.98333 136.59,8.94067 137.837,8.17 C139.106,7.37667 140.455,6.98 141.883,6.98 C142.903,6.98 143.764,7.16133 144.467,7.524 C145.192,7.88667 145.77,8.41933 146.201,9.122 C146.654,9.802 146.983,10.6067 147.187,11.536 C147.391,12.4427 147.493,13.474 147.493,14.63 L147.493,25 L145.181,25 L145.181,15.106 C145.181,13.1113 144.829,11.6153 144.127,10.618 C143.424,9.598 142.415,9.088 141.101,9.088 C140.239,9.088 139.378,9.31467 138.517,9.768 C137.678,10.1987 136.93,10.7993 136.273,11.57 C135.638,12.318 135.185,13.1793 134.913,14.154 L134.913,25 L132.601,25 L132.601,0.179999 L134.913,0.179999 Z M182,6.98 C182.975,6.98 183.802,7.16133 184.482,7.524 C185.162,7.88667 185.706,8.408 186.114,9.088 C186.522,9.74533 186.817,10.55 186.998,11.502 C187.179,12.4313 187.27,13.474 187.27,14.63 L187.27,25 L184.958,25 L184.958,15.106 C184.958,13.0207 184.652,11.502 184.04,10.55 C183.428,9.57533 182.465,9.088 181.15,9.088 C180.243,9.088 179.348,9.31467 178.464,9.768 C177.58,10.1987 176.798,10.7993 176.118,11.57 C175.461,12.318 174.985,13.1793 174.69,14.154 L174.69,25 L172.378,25 L172.378,7.286 L174.486,7.286 L174.486,11.298 C174.962,10.4367 175.585,9.68867 176.356,9.054 C177.127,8.39667 177.999,7.88667 178.974,7.524 C179.949,7.16133 180.957,6.98 182,6.98 Z M54.5458,4.974 L50.4658,4.974 L50.4658,20.886 L54.5458,20.886 C56.0871,20.886 57.3905,20.546 58.4558,19.866 C59.5211,19.1633 60.3258,18.2113 60.8698,17.01 C61.4365,15.786 61.7198,14.4147 61.7198,12.896 C61.7198,11.332 61.4365,9.96067 60.8698,8.782 C60.3031,7.58067 59.4871,6.65133 58.4218,5.994 C57.3565,5.314 56.0645,4.974 54.5458,4.974 Z M31.8721,5.722 L28.4041,15.684 L35.2041,15.684 L31.8721,5.722 Z M85.2,8.782 C84.044,8.782 82.99,9.06533 82.038,9.632 C81.086,10.176 80.304,10.9467 79.692,11.944 C79.1027,12.9187 78.7627,14.0407 78.672,15.31 L91.762,15.31 C91.6713,14.018 91.32,12.8847 90.708,11.91 C90.1187,10.9353 89.3367,10.176 88.362,9.632 C87.41,9.06533 86.356,8.782 85.2,8.782 Z M160.073,8.782 C158.917,8.782 157.863,9.06533 156.911,9.632 C155.959,10.176 155.177,10.9467 154.565,11.944 C153.976,12.9187 153.636,14.0407 153.545,15.31 L166.635,15.31 C166.544,14.018 166.193,12.8847 165.581,11.91 C164.992,10.9353 164.21,10.176 163.235,9.632 C162.283,9.06533 161.229,8.782 160.073,8.782 Z M11.054,4.974 L5.37597,4.974 L5.37597,12.794 L11.258,12.794 C11.8473,12.794 12.3686,12.624 12.822,12.284 C13.2753,11.9213 13.638,11.4453 13.91,10.856 C14.182,10.2667 14.318,9.60933 14.318,8.884 C14.318,8.11333 14.1593,7.44467 13.842,6.878 C13.5246,6.28867 13.1166,5.824 12.618,5.484 C12.142,5.144 11.6206,4.974 11.054,4.974 Z M72.4577,0.179999 L72.4577,3.58 L70.1457,3.58 L70.1457,0.179999 L72.4577,0.179999 Z" id="Logo" fill="#2D2D2D" fill-rule="nonzero"></path>
    </g>
</svg>